<?xml version="1.0" encoding="UTF-8"?><svg id="a" xmlns="http://www.w3.org/2000/svg" viewBox="0 0 128 128"><defs><style>.b{fill:#333;}</style></defs><path class="b" d="M118.52,24.8c-.62-1.24-1.86-1.86-3.1-2.17-.62-.31-1.24-.31-1.55-.31h-30.68V13.34c-.31-2.48-2.17-4.34-4.96-4.34h-29.13c-1.55,0-2.48,.62-3.41,1.86-.93,1.24-1.24,2.48-.93,3.41v8.06H13.47c-2.48,0-4.34,1.55-4.65,4.03-.31,1.24,.31,2.48,.93,3.41,.62,1.24,1.86,1.86,3.1,2.17,.62,.31,1.24,.31,1.55,.31h4.96c0,2.17,.31,4.34,.62,6.82,.31,3.72,.62,7.75,.93,11.77s.62,7.75,.93,11.77l1.55,20.76c.31,1.86,.31,3.41,.31,5.27s.31,3.72,.31,5.27l.93,13.01c.31,6.51,5.89,11.77,12.7,12.08h0l52.68-.31c6.51,0,12.08-5.27,12.39-11.77l.62-7.13c0-.31,1.55-17.35,1.86-24.48l3.1-39.35c0-.62,0-1.24,.31-1.86,0-.62,0-.93,.31-1.86h5.58c2.17,0,4.03-1.55,4.65-3.72,.31-1.24,0-2.48-.62-3.72Zm-63.52-2.48v-3.41h18.28v3.41h-18.28Zm43.38,10.23v.93c0,.62,0,1.24-.31,1.55-.31,4.03-.62,7.75-.93,11.77s-.62,7.75-.93,11.77l-1.86,23.55c-.31,3.72-.62,7.75-.93,11.77-.31,4.34-.62,8.37-.93,12.7,0,1.55-1.24,2.48-2.48,2.48H38.26c-2.48,0-3.41-.93-3.41-3.1l-4.34-57.01c-.31-3.1-.31-6.2-.62-8.99-.31-2.48-.31-4.96-.62-7.13H98.37v-.31Z"/><path class="b" d="M52.27,92.8c-2.1,0-3.86-1.64-3.99-3.76l-2.07-34.89c-.13-2.21,1.55-4.1,3.76-4.23,2.21-.13,4.1,1.55,4.23,3.76l2.07,34.89c.13,2.21-1.55,4.1-3.76,4.23-.08,0-.16,0-.24,0Z"/><path class="b" d="M75.48,92.8c-.08,0-.16,0-.24,0-2.21-.13-3.89-2.03-3.76-4.23l2.07-34.89c.13-2.21,2.03-3.88,4.23-3.76,2.21,.13,3.89,2.03,3.76,4.23l-2.07,34.89c-.13,2.12-1.89,3.76-3.99,3.76Z"/></svg>